<svg width="51" height="41" viewBox="0 0 51 41" fill="none" xmlns="http://www.w3.org/2000/svg">
<g clip-path="url(#clip0)">
<path d="M42.7135 21.2521H1.04666C0.468487 21.2521 0 20.8753 0 20.4106C0 19.9459 0.468487 19.5692 1.04666 19.5692H42.5111C42.5766 19.5589 42.6443 19.5535 42.7135 19.5535C46.1284 19.5535 48.9067 17.32 48.9067 14.5747C48.9067 11.8293 46.1284 9.59573 42.7135 9.59573C39.2986 9.59573 36.5203 11.8292 36.5203 14.5746C36.5203 15.0393 36.0518 15.416 35.4737 15.416C34.8955 15.416 34.427 15.0393 34.427 14.5746C34.427 10.9013 38.1443 7.91286 42.7135 7.91286C47.2827 7.91286 51 10.9013 51 14.5746C51 18.1898 47.3993 21.1417 42.9297 21.234C42.8599 21.2459 42.7877 21.2521 42.7135 21.2521Z" fill="white"/>
<path d="M21.2519 15.424H1.04666C0.468487 15.424 0 15.0472 0 14.5825C0 14.1178 0.468487 13.7411 1.04666 13.7411H21.0495C21.115 13.7308 21.1827 13.7254 21.2519 13.7254C24.6668 13.7254 27.4451 11.4919 27.4451 8.74655C27.4451 6.00123 24.6668 3.76772 21.2519 3.76772C17.8368 3.76772 15.0586 6.00123 15.0586 8.74655C15.0586 9.21125 14.5901 9.58799 14.0119 9.58799C13.4337 9.58799 12.9652 9.21125 12.9652 8.74655C12.9652 5.07329 16.6827 2.08485 21.2519 2.08485C25.821 2.08485 29.5384 5.07329 29.5384 8.74655C29.5384 12.3618 25.9377 15.3137 21.468 15.406C21.3983 15.4177 21.326 15.424 21.2519 15.424Z" fill="white"/>
<path d="M34.0774 38.9154C29.5082 38.9154 25.7908 35.9269 25.7908 32.2537C25.7908 31.789 26.2593 31.4122 26.8374 31.4122C27.4156 31.4122 27.8841 31.789 27.8841 32.2537C27.8841 34.999 30.6624 37.2325 34.0774 37.2325C37.4923 37.2325 40.2706 34.999 40.2706 32.2537C40.2706 29.5083 37.4923 27.2748 34.0774 27.2748H1.04666C0.468487 27.2748 0 26.8981 0 26.4334C0 25.9687 0.468487 25.592 1.04666 25.592H34.0774C38.6466 25.592 42.3639 28.5804 42.3639 32.2537C42.3639 35.9269 38.6466 38.9154 34.0774 38.9154Z" fill="white"/>
</g>
<defs>
<clipPath id="clip0">
<rect width="51" height="41" fill="white"/>
</clipPath>
</defs>
</svg>
